<svg width="62" height="24" viewBox="0 0 62 24" fill="none" xmlns="http://www.w3.org/2000/svg">
<path d="M1.33348 23.1887V4.12282C1.33348 3.63926 1.24149 3.30546 1.05752 3.12116C0.893992 2.91392 0.597597 2.81031 0.168335 2.81031C0.168335 1.4978 0.82245 0.841544 2.13068 0.841544C3.21406 0.841544 3.75574 1.63596 3.75574 3.22478V12.2396H6.60727V4.39913L6.48462 1.1524C7.17961 1.03718 7.8644 0.979705 8.53895 0.979705C8.866 0.979705 9.02954 1.17534 9.02954 1.56688V20.6673C9.02954 21.1509 9.11129 21.4963 9.27483 21.7035C9.4588 21.8878 9.76541 21.9798 10.1947 21.9798C10.1947 23.2923 9.54056 23.9486 8.23234 23.9486C7.14895 23.9486 6.60727 23.1542 6.60727 21.5654V14.5193H3.75574V20.3565L3.87839 23.6032C3.1834 23.7184 2.49862 23.7759 1.82406 23.7759C1.497 23.7759 1.33348 23.5803 1.33348 23.1887ZM12.9822 23.1887V4.46821C12.9822 3.3168 13.3298 2.41877 14.0247 1.77412C14.7197 1.12947 15.6702 0.807007 16.8763 0.807007C18.0823 0.807007 19.0124 1.10626 19.6665 1.70504C20.341 2.30382 20.6783 3.17864 20.6783 4.33005V20.6673C20.6783 21.1509 20.7601 21.4963 20.9236 21.7035C21.1076 21.8878 21.4142 21.9798 21.8434 21.9798C21.8434 23.2923 21.1893 23.9486 19.8811 23.9486C18.7977 23.9486 18.256 23.1542 18.256 21.5654V14.9683H15.4045V20.3565L15.5272 23.6032C14.8322 23.7184 14.1474 23.7759 13.4728 23.7759C13.1458 23.7759 12.9822 23.5803 12.9822 23.1887ZM15.4045 4.46821V12.6887H18.256V4.46821C18.256 4.0308 18.1232 3.69674 17.8574 3.46656C17.5917 3.21318 17.2442 3.08663 16.8149 3.08663C16.3857 3.08663 16.0382 3.21318 15.7725 3.46656C15.5272 3.69674 15.4045 4.0308 15.4045 4.46821ZM29.1456 21.3236C29.8815 21.3236 30.4334 21.2661 30.8013 21.1509C30.9647 21.7955 31.0466 22.4288 31.0466 23.0506C31.0466 23.4189 30.9034 23.6032 30.6173 23.6032H24.577V4.39913L24.4544 1.1524C25.1493 1.03718 25.8341 0.979705 26.5087 0.979705C26.8357 0.979705 26.9993 1.17534 26.9993 1.56688V21.3236H29.1456ZM38.4037 21.3236C39.1396 21.3236 39.6915 21.2661 40.0594 21.1509C40.223 21.7955 40.3047 22.4288 40.3047 23.0506C40.3047 23.4189 40.1617 23.6032 39.8755 23.6032H33.8351V4.39913L33.7125 1.1524C34.4076 1.03718 35.0923 0.979705 35.7668 0.979705C36.094 0.979705 36.2574 1.17534 36.2574 1.56688V21.3236H38.4037ZM47.1104 11.9288C47.8463 11.9288 48.3982 11.8713 48.7661 11.7561C48.9295 12.4007 49.0114 13.0341 49.0114 13.6558C49.0114 14.0241 48.8682 14.2084 48.5822 14.2084H46.7731C46.3439 14.2084 45.9963 14.335 45.7306 14.5883C45.4853 14.8417 45.3627 15.1755 45.3627 15.59V20.2874C45.3627 20.7248 45.4853 21.0702 45.7306 21.3236C45.9963 21.5538 46.3439 21.669 46.7731 21.669C47.2024 21.669 47.5497 21.5538 47.8156 21.3236C48.0813 21.0702 48.2142 20.7248 48.2142 20.2874V19.4239L48.1222 17.6624C48.4083 17.5933 48.6945 17.5588 48.9808 17.5588C49.2668 17.5588 49.553 17.6049 49.8393 17.6969C50.3706 17.858 50.6365 18.1459 50.6365 18.5604V20.7709C50.6365 21.7151 50.2889 22.4863 49.594 23.0851C48.8988 23.6607 47.9586 23.9486 46.7731 23.9486C45.608 23.9486 44.6778 23.6261 43.9829 22.9815C43.2878 22.3368 42.9404 21.4388 42.9404 20.2874V15.4518C42.9404 14.4156 43.2367 13.6212 43.8296 13.0686C43.2367 12.516 42.9404 11.7215 42.9404 10.6854V4.46821C42.9404 3.3168 43.2878 2.41877 43.9829 1.77412C44.6778 1.12947 45.5977 0.807007 46.7425 0.807007C47.9076 0.807007 48.8275 1.10626 49.502 1.70504C50.1766 2.28061 50.5138 3.04048 50.5138 3.98466V6.88599C50.5138 7.30047 50.2479 7.58839 49.7166 7.74948C49.4304 7.8415 49.1441 7.88764 48.8581 7.88764C48.5719 7.88764 48.2856 7.8531 47.9996 7.78402C48.0609 7.23139 48.0916 6.64421 48.0916 6.0225V4.46821C48.0916 3.54724 47.6417 3.08663 46.7425 3.08663C46.3132 3.08663 45.9759 3.21318 45.7306 3.46656C45.4853 3.69674 45.3627 4.0308 45.3627 4.46821V10.5472C45.3627 10.9617 45.475 11.2955 45.7 11.5488C45.9453 11.8022 46.2619 11.9288 46.6505 11.9288H47.1104ZM59.4567 3.98466C59.4567 2.85645 59.3851 1.91228 59.2421 1.1524C59.937 1.06039 60.6422 1.01424 61.3577 1.01424C61.7051 1.01424 61.8787 1.18694 61.8787 1.53234V20.2874C61.8787 21.4388 61.5314 22.3368 60.8365 22.9815C60.1413 23.6261 59.2011 23.9486 58.0156 23.9486C56.8505 23.9486 55.9203 23.6607 55.2254 23.0851C54.5303 22.4863 54.1829 21.7151 54.1829 20.7709V18.4222C54.1829 18.0078 54.4486 17.7198 54.9801 17.5588C55.2661 17.4667 55.5524 17.4206 55.8387 17.4206C56.1247 17.4206 56.4109 17.4551 56.6972 17.5242C56.6359 18.0768 56.6052 18.664 56.6052 19.2857V20.2874C56.6052 20.7248 56.7379 21.0702 57.0038 21.3236C57.2695 21.5538 57.617 21.669 58.0463 21.669C58.4756 21.669 58.8128 21.5538 59.0581 21.3236C59.3238 21.0702 59.4567 20.7248 59.4567 20.2874V14.8992C58.9252 15.498 58.2097 15.7972 57.3104 15.7972C55.2254 15.7972 54.1829 14.692 54.1829 12.4814V4.08827C54.1829 3.60472 54.0909 3.27093 53.907 3.08663C53.7434 2.87939 53.4471 2.77577 53.0178 2.77577C53.0178 1.46326 53.6717 0.807007 54.9801 0.807007C56.0633 0.807007 56.6052 1.60142 56.6052 3.19025V12.2742C56.6052 13.1031 56.9731 13.5176 57.709 13.5176C58.4653 13.5176 59.0478 13.1147 59.4567 12.3087V3.98466Z" fill="white"/>
</svg>
